<svg width="512" height="512" viewBox="0 0 512 512" fill="none" xmlns="http://www.w3.org/2000/svg">
<g clip-path="url(#clip0_113_68)">
<path d="M359.471 0H152.527C68.4225 0 -0.000976562 68.4235 -0.000976562 152.528V359.472C-0.000976562 443.576 68.4225 512 152.527 512H359.471C443.576 512 511.999 443.576 511.999 359.472V152.528C511.998 68.4235 443.575 0 359.471 0ZM460.492 359.472C460.492 415.264 415.263 460.493 359.471 460.493H152.527C96.735 460.493 51.5062 415.264 51.5062 359.472V152.528C51.5062 96.7351 96.735 51.5072 152.527 51.5072H359.471C415.263 51.5072 460.492 96.7351 460.492 152.528V359.472Z" fill="#F50641"/>
<path d="M256 123.579C182.982 123.579 123.578 182.983 123.578 255.999C123.578 329.015 182.982 388.421 256 388.421C329.017 388.421 388.421 329.016 388.421 255.999C388.421 182.982 329.017 123.579 256 123.579ZM256 336.914C211.311 336.914 175.085 300.688 175.085 256C175.085 211.312 211.312 175.086 256 175.086C300.688 175.086 336.914 211.312 336.914 256C336.914 300.687 300.687 336.914 256 336.914Z" fill="#F50641"/>
<path d="M388.677 156.304C406.202 156.304 420.408 142.097 420.408 124.573C420.408 107.048 406.202 92.8419 388.677 92.8419C371.153 92.8419 356.946 107.048 356.946 124.573C356.946 142.097 371.153 156.304 388.677 156.304Z" fill="#F50641"/>
</g>
<defs>
<clipPath id="clip0_113_68">
<rect width="512" height="512" fill="white"/>
</clipPath>
</defs>
</svg>
