<svg width="512" height="512" viewBox="0 0 512 512" fill="none" xmlns="http://www.w3.org/2000/svg">
<path d="M448.8 460.288C455.427 460.288 460.8 454.915 460.8 448.288V310.784C460.8 237.056 444.928 180.736 358.912 180.736C317.657 180.736 290.082 203.028 278.706 224.43C278.595 224.639 278.379 224.768 278.142 224.768C277.789 224.768 277.504 224.482 277.504 224.13V199.392C277.504 192.765 272.131 187.392 265.504 187.392H208.096C201.468 187.392 196.096 192.765 196.096 199.392V448.8C196.096 455.427 201.468 460.8 208.096 460.8H269.088C275.715 460.8 281.088 455.427 281.088 448.8V325.12C281.088 289.28 287.744 254.976 331.776 254.976C375.296 254.976 375.808 295.424 375.808 327.168V448.288C375.808 454.915 381.18 460.288 387.808 460.288H448.8Z" fill="#F50641"/>
<path d="M57.8564 199.392C57.8564 192.765 63.229 187.392 69.8564 187.392H130.848C137.476 187.392 142.848 192.765 142.848 199.392V448.8C142.848 455.427 137.476 460.8 130.848 460.8H69.8565C63.229 460.8 57.8564 455.427 57.8564 448.8V199.392Z" fill="#F50641"/>
<path d="M100.352 51.2C73.2162 51.2 51.2002 73.216 51.2002 100.352C51.2002 127.488 73.2162 150.016 100.352 150.016C127.488 150.016 149.504 127.488 149.504 100.352C149.504 73.216 127.488 51.2 100.352 51.2Z" fill="#F50641"/>
</svg>
