<svg width="512" height="512" viewBox="0 0 512 512" fill="none" xmlns="http://www.w3.org/2000/svg">
<g clip-path="url(#clip0_22_1923)">
<path d="M309.382 255.702C309.382 286.23 284.636 310.976 254.108 310.976C223.58 310.976 198.854 286.23 198.854 255.702C198.854 225.174 223.601 200.427 254.108 200.427C284.614 200.427 309.382 225.174 309.382 255.702Z" fill="black"/>
<path d="M256 0C114.624 0 0 114.624 0 256C0 397.376 114.624 512 256 512C397.376 512 512 397.376 512 256C512 114.624 397.376 0 256 0ZM418.923 324.053C418.133 341.696 415.317 353.749 411.221 364.288C406.976 375.189 401.301 384.448 392.085 393.664C382.869 402.88 373.611 408.555 362.731 412.779C352.192 416.875 340.117 419.669 322.475 420.48C304.789 421.291 299.136 421.483 254.101 421.483C209.067 421.483 203.435 421.291 185.749 420.48C168.107 419.669 156.053 416.875 145.493 412.779C134.592 408.555 125.355 402.859 116.117 393.664C106.901 384.448 101.227 375.189 96.9813 364.288C92.8853 353.749 90.0907 341.696 89.28 324.053C88.4693 306.368 88.2773 300.715 88.2773 255.68C88.2773 210.645 88.4693 205.013 89.28 187.328C90.0907 169.685 92.8853 157.632 96.9813 147.072C101.227 136.171 106.901 126.933 116.117 117.717C125.333 108.501 134.592 102.827 145.493 98.5813C156.032 94.4853 168.107 91.6907 185.749 90.88C203.435 90.0693 209.088 89.8773 254.101 89.8773C299.115 89.8773 304.789 90.0693 322.475 90.88C340.117 91.6693 352.171 94.4853 362.731 98.5813C373.632 102.805 382.869 108.501 392.085 117.717C401.301 126.933 406.976 136.192 411.221 147.072C415.317 157.611 418.112 169.685 418.923 187.328C419.733 205.013 419.925 210.645 419.925 255.68C419.925 300.715 419.733 306.347 418.923 324.053ZM383.381 157.909C380.373 150.165 376.789 144.64 370.965 138.837C365.163 133.035 359.637 129.429 351.893 126.421C346.048 124.16 337.28 121.451 321.109 120.725C303.616 119.915 298.368 119.765 254.101 119.765C209.835 119.765 204.587 119.936 187.093 120.725C170.944 121.451 162.155 124.16 156.309 126.421C148.565 129.429 143.04 133.013 137.237 138.837C131.435 144.64 127.829 150.165 124.821 157.909C122.56 163.755 119.851 172.523 119.125 188.693C118.315 206.165 118.165 211.413 118.165 255.701C118.165 299.989 118.336 305.216 119.125 322.709C119.872 338.859 122.56 347.648 124.821 353.493C127.829 361.237 131.413 366.763 137.237 372.565C143.04 378.368 148.565 381.952 156.309 384.96C162.155 387.243 170.923 389.931 187.093 390.677C204.565 391.488 209.813 391.637 254.101 391.637C298.389 391.637 303.637 391.467 321.109 390.677C337.28 389.931 346.048 387.243 351.893 384.96C359.637 381.952 365.163 378.368 370.965 372.565C376.768 366.763 380.373 361.237 383.381 353.493C385.643 347.648 388.352 338.88 389.077 322.709C389.888 305.216 390.059 299.968 390.059 255.701C390.059 211.435 389.888 206.187 389.077 188.693C388.331 172.523 385.643 163.755 383.381 157.909ZM254.123 340.821C207.104 340.821 168.981 302.699 168.981 255.68C168.981 208.661 207.104 170.539 254.123 170.539C301.141 170.539 339.264 208.661 339.264 255.68C339.264 302.699 301.141 340.821 254.123 340.821ZM342.635 187.072C331.648 187.072 322.731 178.176 322.731 167.189C322.731 156.203 331.627 147.285 342.635 147.285C353.643 147.285 362.539 156.203 362.539 167.189C362.539 178.176 353.621 187.072 342.635 187.072Z" fill="black"/>
</g>
<defs>
<clipPath id="clip0_22_1923">
<rect width="512" height="512" fill="white"/>
</clipPath>
</defs>
</svg>
