<svg width="512" height="512" viewBox="0 0 512 512" fill="none" xmlns="http://www.w3.org/2000/svg">
<g clip-path="url(#clip0_22_2012)">
<path d="M295.36 368.363L225.771 437.952C205.567 457.616 178.433 468.535 150.239 468.346C122.046 468.157 95.0607 456.876 75.1217 436.942C55.1828 417.009 43.8936 390.027 43.6968 361.834C43.4999 333.64 54.4111 306.503 74.0698 286.293L143.659 216.64C147.659 212.637 149.905 207.209 149.903 201.55C149.901 195.891 147.651 190.464 143.648 186.464C139.645 182.464 134.217 180.218 128.558 180.22C122.899 180.222 117.473 182.472 113.472 186.475L43.9044 256.128C15.7929 284.254 0.00562751 322.395 0.0156297 362.16C0.025632 401.926 15.8321 440.059 43.9578 468.171C72.0835 496.282 110.224 512.07 149.99 512.06C189.756 512.05 227.889 496.243 256 468.117L325.59 398.528C329.476 394.505 331.626 389.116 331.577 383.522C331.529 377.929 329.285 372.578 325.33 368.623C321.375 364.667 316.024 362.424 310.43 362.375C304.837 362.326 299.448 364.477 295.424 368.363H295.36Z" fill="white"/>
<path d="M468.139 43.968C454.257 29.9908 437.739 18.9073 419.542 11.36C401.346 3.81259 381.833 -0.048626 362.133 3.73882e-05C342.444 -0.0522662 322.94 3.79904 304.748 11.3313C286.557 18.8635 270.039 29.9272 256.149 43.8827L186.453 113.493C182.45 117.494 180.2 122.92 180.198 128.579C180.196 134.238 182.442 139.666 186.443 143.669C190.443 147.672 195.869 149.922 201.528 149.924C207.187 149.926 212.616 147.68 216.619 143.68L286.272 74.0907C296.204 64.0992 308.019 56.1771 321.033 50.7832C334.048 45.3892 348.003 42.6305 362.091 42.6667C383.301 42.6737 404.034 48.9692 421.668 60.7574C439.301 72.5455 453.044 89.297 461.159 108.894C469.274 128.492 471.396 150.055 467.258 170.858C463.119 191.662 452.906 210.771 437.909 225.771L368.32 295.36C364.317 299.363 362.068 304.792 362.068 310.453C362.068 316.114 364.317 321.544 368.32 325.547C372.323 329.55 377.752 331.799 383.413 331.799C389.074 331.799 394.504 329.55 398.507 325.547L468.096 256C496.171 227.863 511.943 189.741 511.951 149.993C511.959 110.245 496.203 72.116 468.139 43.968Z" fill="white"/>
<path d="M304.917 176.917L176.917 304.917C174.88 306.885 173.254 309.239 172.136 311.842C171.018 314.445 170.43 317.244 170.405 320.077C170.38 322.909 170.92 325.718 171.993 328.34C173.066 330.962 174.65 333.344 176.653 335.347C178.656 337.35 181.038 338.934 183.659 340.007C186.281 341.079 189.09 341.619 191.923 341.595C194.756 341.57 197.555 340.981 200.158 339.863C202.76 338.745 205.115 337.12 207.082 335.083L335.082 207.083C338.968 203.059 341.119 197.67 341.07 192.077C341.022 186.483 338.778 181.132 334.823 177.177C330.867 173.222 325.517 170.978 319.923 170.93C314.329 170.881 308.941 173.031 304.917 176.917Z" fill="white"/>
</g>
<defs>
<clipPath id="clip0_22_2012">
<rect width="512" height="512" fill="white"/>
</clipPath>
</defs>
</svg>
