<svg width="512" height="512" viewBox="0 0 512 512" fill="none" xmlns="http://www.w3.org/2000/svg">
<g clip-path="url(#clip0_22_2006)">
<path d="M362.667 405.333C362.667 464.213 314.88 512 256 512H106.667C47.7867 512 0 464.213 0 405.333V256C0 197.12 47.7867 149.333 106.667 149.333H128C139.733 149.333 149.333 158.933 149.333 170.667C149.333 182.4 139.733 192 128 192H106.667C71.4667 192 42.6667 220.8 42.6667 256V405.333C42.6667 440.533 71.4667 469.333 106.667 469.333H256C291.2 469.333 320 440.533 320 405.333C320 393.6 329.6 384 341.333 384C353.067 384 362.667 393.6 362.667 405.333ZM493.44 125.653L378.027 6.39987C369.92 -2.13346 356.267 -2.3468 347.947 5.9732C339.627 14.2932 339.2 27.7332 347.52 36.0532L457.173 149.12H277.333C218.453 149.12 170.667 196.907 170.667 255.787V362.453C170.667 374.187 180.267 383.787 192 383.787C203.733 383.787 213.333 374.187 213.333 362.453V255.787C213.333 220.587 242.133 191.787 277.333 191.787H456.96L347.307 304.853C339.2 313.387 339.2 326.827 347.733 334.933C351.787 338.987 357.333 340.907 362.667 340.907C368 340.907 373.76 338.773 378.027 334.507L493.227 215.68C518.187 190.72 518.187 150.187 493.44 125.44V125.653Z" fill="white"/>
</g>
<defs>
<clipPath id="clip0_22_2006">
<rect width="512" height="512" fill="white"/>
</clipPath>
</defs>
</svg>
