<svg width="512" height="512" viewBox="0 0 512 512" fill="none" xmlns="http://www.w3.org/2000/svg">
<g clip-path="url(#clip0_22_1995)">
<path d="M256 42.6667C284.299 42.7595 312.298 48.4638 338.378 59.4493C364.457 70.4349 388.1 86.4836 407.936 106.667H341.333C335.675 106.667 330.249 108.914 326.248 112.915C322.247 116.916 320 122.342 320 128C320 133.658 322.247 139.084 326.248 143.085C330.249 147.086 335.675 149.333 341.333 149.333H429.717C440.222 149.328 450.295 145.152 457.724 137.724C465.152 130.296 469.327 120.222 469.333 109.717V21.3334C469.333 15.6754 467.086 10.2492 463.085 6.24842C459.084 2.24764 453.658 2.78624e-05 448 2.78624e-05C442.342 2.78624e-05 436.916 2.24764 432.915 6.24842C428.914 10.2492 426.666 15.6754 426.666 21.3334V65.664C391.406 33.9084 348.002 12.5954 301.314 4.11201C254.626 -4.37142 206.498 0.309616 162.321 17.6309C118.143 34.9522 79.6588 64.2298 51.1787 102.185C22.6986 140.14 5.34679 185.275 1.06643 232.533C0.790875 235.504 1.13717 238.5 2.08324 241.329C3.02931 244.159 4.55442 246.761 6.56139 248.968C8.56836 251.176 11.0132 252.941 13.7401 254.152C16.467 255.363 19.4162 255.992 22.3998 256C27.6176 256.067 32.6725 254.183 36.5749 250.719C40.4773 247.254 42.9462 242.458 43.4984 237.269C48.2475 184.165 72.6819 134.756 112.001 98.7486C151.321 62.7408 202.684 42.7369 256 42.6667Z" fill="black"/>
<path d="M489.621 256C484.403 255.933 479.348 257.817 475.446 261.281C471.544 264.745 469.075 269.541 468.523 274.73C464.996 315.333 449.897 354.071 425.016 386.351C400.136 418.63 366.519 443.095 328.152 456.844C289.786 470.592 248.281 473.047 208.562 463.917C168.843 454.786 132.576 434.455 104.064 405.333H170.667C176.324 405.333 181.751 403.085 185.751 399.085C189.752 395.084 192 389.658 192 384C192 378.342 189.752 372.916 185.751 368.915C181.751 364.914 176.324 362.666 170.667 362.666H82.2825C77.0793 362.664 71.9265 363.686 67.1188 365.676C62.3111 367.666 57.9428 370.584 54.2635 374.263C50.5843 377.943 47.6663 382.311 45.6764 387.119C43.6865 391.926 42.6637 397.079 42.6665 402.282V490.666C42.6665 496.324 44.9141 501.751 48.9149 505.751C52.9157 509.752 58.3419 512 63.9998 512C69.6578 512 75.084 509.752 79.0848 505.751C83.0856 501.751 85.3332 496.324 85.3332 490.666V446.336C120.594 478.091 163.998 499.404 210.686 507.888C257.374 516.371 305.501 511.69 349.679 494.369C393.857 477.048 432.341 447.77 460.821 409.815C489.301 371.859 506.653 326.725 510.933 279.466C511.209 276.496 510.862 273.5 509.916 270.67C508.97 267.841 507.445 265.239 505.438 263.032C503.431 260.824 500.986 259.058 498.26 257.848C495.533 256.637 492.605 256.008 489.621 256Z" fill="black"/>
</g>
<defs>
<clipPath id="clip0_22_1995">
<rect width="512" height="512" fill="white"/>
</clipPath>
</defs>
</svg>
