<svg width="512" height="512" viewBox="0 0 512 512" fill="none" xmlns="http://www.w3.org/2000/svg">
<path d="M320 512H192C133.184 512 85.3334 464.149 85.3334 405.333V106.667C85.3334 47.8507 133.184 0 192 0H320C378.816 0 426.667 47.8507 426.667 106.667V405.333C426.667 464.149 378.816 512 320 512ZM192 42.6667C156.715 42.6667 128 71.3813 128 106.667V405.333C128 440.619 156.715 469.333 192 469.333H320C355.285 469.333 384 440.619 384 405.333V106.667C384 71.3813 355.285 42.6667 320 42.6667H192ZM298.667 405.333C298.667 393.557 289.109 384 277.333 384H234.667C222.891 384 213.333 393.557 213.333 405.333C213.333 417.109 222.891 426.667 234.667 426.667H277.333C289.109 426.667 298.667 417.109 298.667 405.333Z" fill="#F50641"/>
</svg>
