<svg width="512" height="512" viewBox="0 0 512 512" fill="none" xmlns="http://www.w3.org/2000/svg">
<path d="M320 0H192C133.184 0 85.3334 47.8507 85.3334 106.667V405.333C85.3334 464.149 133.184 512 192 512H320C378.816 512 426.667 464.149 426.667 405.333V106.667C426.667 47.8507 378.816 0 320 0ZM277.333 448H234.667C222.891 448 213.333 438.443 213.333 426.667C213.333 414.891 222.891 405.333 234.667 405.333H277.333C289.109 405.333 298.667 414.891 298.667 426.667C298.667 438.443 289.109 448 277.333 448Z" fill="#F50641"/>
</svg>
