<svg width="512" height="512" viewBox="0 0 512 512" fill="none" xmlns="http://www.w3.org/2000/svg">
<path d="M34.283 384C51.929 414.626 91.062 425.148 121.688 407.502C121.709 407.49 121.729 407.478 121.75 407.466L131.243 401.983C149.163 417.315 169.761 429.205 192 437.055V448C192 483.346 220.654 512 256 512C291.346 512 320 483.346 320 448V437.056C342.242 429.193 362.841 417.289 380.757 401.941L390.293 407.445C420.926 425.118 460.087 414.612 477.76 383.978C495.433 353.345 484.927 314.184 454.293 296.511L444.821 291.05C449.085 267.849 449.085 244.065 444.821 220.863L454.293 215.402C484.926 197.729 495.433 158.569 477.76 127.935C460.087 97.302 420.927 86.795 390.293 104.468L380.8 109.951C362.862 94.638 342.25 82.77 320 74.944V64C320 28.654 291.346 0 256 0C220.654 0 192 28.654 192 64V74.944C169.758 82.807 149.159 94.711 131.243 110.059L121.707 104.534C91.073 86.86 51.913 97.367 34.24 128C16.567 158.633 27.073 197.794 57.707 215.467L67.179 220.928C62.915 244.129 62.915 267.913 67.179 291.115L57.707 296.576C27.158 314.296 16.686 353.38 34.283 384ZM256 170.667C303.128 170.667 341.333 208.872 341.333 256C341.333 303.128 303.128 341.333 256 341.333C208.872 341.333 170.667 303.128 170.667 256C170.667 208.872 208.872 170.667 256 170.667Z" fill="white"/>
</svg>
