<svg width="512" height="512" viewBox="0 0 512 512" fill="none" xmlns="http://www.w3.org/2000/svg">
<path d="M360.511 426.667C350.591 475.285 307.497 512 255.999 512C204.5 512 161.385 475.285 151.487 426.667H360.511ZM437.332 149.333C478.505 149.333 511.999 115.84 511.999 74.6667C511.999 33.4933 478.505 0 437.332 0C396.159 0 362.665 33.4933 362.665 74.6667C362.665 115.84 396.159 149.333 437.332 149.333ZM442.452 191.744C440.745 191.808 439.06 192 437.332 192C372.628 192 319.999 139.371 319.999 74.6667C319.999 55.3813 324.756 37.2053 333.055 21.1413C307.839 7.59467 279.167 0 249.087 0C165.865 0 93.8227 57.792 75.7747 139.008L25.6413 301.077C12.9053 342.251 43.6893 383.979 86.7827 383.979H420.777C465.151 383.979 496.063 339.925 480.959 298.197L442.431 191.701L442.452 191.744Z" fill="#F50641"/>
</svg>
