<svg width="512" height="512" viewBox="0 0 512 512" fill="none" xmlns="http://www.w3.org/2000/svg">
<g clip-path="url(#clip0_30_44)">
<path d="M426.668 170.667C473.73 170.667 512.002 132.395 512.002 85.3333C512.002 38.272 473.73 0 426.668 0C379.607 0 341.335 38.272 341.335 85.3333C341.335 132.395 379.607 170.667 426.668 170.667ZM426.668 42.6667C450.199 42.6667 469.335 61.8027 469.335 85.3333C469.335 108.864 450.199 128 426.668 128C403.138 128 384.002 108.864 384.002 85.3333C384.002 61.8027 403.138 42.6667 426.668 42.6667ZM496.471 346.603L496.364 346.197V346.176L462.807 208.085C451.33 211.456 439.234 213.355 426.668 213.355C424.45 213.355 422.295 213.141 420.098 213.013L455.02 356.693C455.063 356.843 455.17 356.949 455.191 357.12H455.106C456.855 363.691 455.554 370.24 451.5 375.595C447.404 381.035 441.346 384.021 434.519 384.021H74.519C68.0124 384.021 61.9537 381.099 57.9217 376.107C53.8257 370.987 52.2897 364.416 53.5057 358.784L103.682 164.288C119.596 92.6933 182.231 42.688 256.002 42.688C272.492 42.688 288.492 45.504 303.618 50.3893C307.628 36.288 313.943 23.1893 322.22 11.5413C301.335 4.11733 279.02 0.0426667 256.002 0.0426667C162.092 0 82.327 63.744 62.2097 154.304L12.0337 348.843C7.83104 367.829 12.4177 387.477 24.6417 402.773C36.8657 417.963 55.063 426.667 74.519 426.667H151.49C161.41 475.285 204.482 512 256.002 512C307.522 512 350.594 475.285 360.514 426.667H434.54C454.743 426.667 473.303 417.429 485.527 401.365C497.388 385.728 501.292 365.952 496.492 346.965C496.471 346.837 496.492 346.731 496.492 346.603H496.471ZM256.002 469.333C228.226 469.333 204.759 451.435 195.927 426.667H316.055C307.223 451.435 283.756 469.333 255.98 469.333H256.002Z" fill="#F50641"/>
</g>
<defs>
<clipPath id="clip0_30_44">
<rect width="512" height="512" fill="white"/>
</clipPath>
</defs>
</svg>
