<svg width="512" height="512" viewBox="0 0 512 512" fill="none" xmlns="http://www.w3.org/2000/svg">
<g clip-path="url(#clip0_22_1928)">
<path d="M440.524 387.669H436.812V380.138H441.506C443.938 380.138 446.711 380.522 446.711 383.701C446.711 387.349 443.916 387.647 440.524 387.647V387.669Z" fill="white"/>
<path d="M440.299 370.474C430.208 370.645 422.165 378.965 422.315 389.055C422.485 399.146 430.805 407.21 440.896 407.039H441.365C451.243 406.826 459.072 398.655 458.88 388.778V388.479C458.709 378.389 450.389 370.325 440.299 370.495V370.474ZM446.912 399.871L440.832 390.293L440.747 390.186H436.821V399.871H433.643V377.621H442.133C447.381 377.621 449.963 379.647 449.963 383.893C449.963 384.021 449.963 384.149 449.963 384.277C449.941 387.413 447.936 389.951 443.797 389.951L450.368 399.871H446.955H446.912Z" fill="white"/>
<path d="M256 0C114.624 0 0 114.624 0 256C0 397.376 114.624 512 256 512C397.376 512 512 397.376 512 256C512 114.624 397.376 0 256 0ZM406.123 385.195C405.952 397.525 395.819 407.424 383.467 407.253H122.88C110.571 407.381 100.459 397.504 100.309 385.195V123.52C100.459 111.211 110.549 101.333 122.88 101.483H383.467C395.797 101.291 405.931 111.168 406.123 123.499V385.195ZM441.323 409.429C429.803 409.536 420.373 400.299 420.267 388.779C420.16 377.28 429.397 367.851 440.917 367.723H441.323C452.672 367.829 461.867 377.024 461.973 388.373C462.08 399.872 452.843 409.301 441.323 409.429ZM306.496 212.49C306.496 212.485 306.491 212.48 306.486 212.48C289.005 211.846 272.583 220.814 263.684 235.865C263.615 235.981 263.49 236.053 263.356 236.053C263.146 236.053 262.976 235.883 262.976 235.674V226.08C262.976 220.572 258.511 216.107 253.003 216.107H231.477C224.85 216.107 219.477 221.479 219.477 228.107V350.027C219.477 356.654 224.85 362.027 231.477 362.027H252.789C259.417 362.027 264.789 356.654 264.789 350.027V289.856C264.789 270.805 268.395 252.395 292.011 252.395C315.264 252.395 315.563 274.176 315.563 291.093V350.048C315.563 356.675 320.935 362.048 327.563 362.048H348.875C355.502 362.048 360.875 356.675 360.875 350.048V282.005C360.875 242.691 352.428 212.506 306.507 212.501C306.501 212.501 306.496 212.496 306.496 212.49ZM145.643 350.027C145.643 356.654 151.015 362.027 157.643 362.027H178.997C185.625 362.027 190.997 356.654 190.997 350.027V228.107C190.997 221.479 185.625 216.107 178.997 216.107H157.643C151.015 216.107 145.643 221.479 145.643 228.107V350.027ZM168.341 143.573C153.813 143.573 142.037 155.349 142.037 169.877C142.037 184.405 153.813 196.16 168.341 196.16C182.869 196.16 194.645 184.384 194.645 169.856C194.645 155.328 182.869 143.552 168.341 143.573Z" fill="white"/>
</g>
<defs>
<clipPath id="clip0_22_1928">
<rect width="512" height="512" fill="white"/>
</clipPath>
</defs>
</svg>
