<svg width="512" height="512" viewBox="0 0 512 512" fill="none" xmlns="http://www.w3.org/2000/svg">
<g clip-path="url(#clip0_22_1925)">
<path d="M146.375 131.393L335.73 378.967H364.743L177.543 131.393H146.375Z" fill="white"/>
<path d="M256 0C114.624 0 0 114.624 0 256C0 397.376 114.624 512 256 512C397.376 512 512 397.376 512 256C512 114.624 397.376 0 256 0ZM321.344 410.283L238.784 302.443L144.448 410.283H92.0107L214.315 270.464L85.3333 101.717H193.323L267.861 200.299L354.112 101.717H406.485L292.117 232.405L426.667 410.261L321.344 410.283Z" fill="white"/>
</g>
<defs>
<clipPath id="clip0_22_1925">
<rect width="512" height="512" fill="white"/>
</clipPath>
</defs>
</svg>
