<svg width="512" height="512" viewBox="0 0 512 512" fill="none" xmlns="http://www.w3.org/2000/svg">
<path d="M199.773 145.187L108.253 236.92C100.307 244.914 95.8462 255.728 95.8462 267C95.8462 278.272 100.307 289.086 108.253 297.08L199.773 388.814C203.77 392.787 209.177 395.017 214.813 395.017C220.449 395.017 225.856 392.787 229.853 388.814C231.853 386.83 233.44 384.471 234.523 381.871C235.606 379.271 236.164 376.483 236.164 373.667C236.164 370.851 235.606 368.062 234.523 365.463C233.44 362.863 231.853 360.503 229.853 358.52L159.667 288.334H394.333C399.991 288.334 405.418 286.086 409.418 282.085C413.419 278.084 415.667 272.658 415.667 267C415.667 261.342 413.419 255.916 409.418 251.915C405.418 247.914 399.991 245.667 394.333 245.667H159.667L229.853 175.48C233.87 171.491 236.139 166.07 236.159 160.409C236.179 154.748 233.949 149.311 229.96 145.294C225.971 141.276 220.55 139.008 214.889 138.988C209.228 138.968 203.79 141.198 199.773 145.187Z" fill="#F50641"/>
</svg>
