<svg width="512" height="512" viewBox="0 0 512 512" fill="none" xmlns="http://www.w3.org/2000/svg">
<path d="M134.187 323.227L225.92 414.747C233.914 422.693 244.728 427.154 256 427.154C267.272 427.154 278.086 422.693 286.08 414.747L377.814 323.227C381.787 319.23 384.017 313.823 384.017 308.187C384.017 302.551 381.787 297.144 377.814 293.147C375.83 291.147 373.471 289.56 370.871 288.477C368.272 287.394 365.483 286.836 362.667 286.836C359.851 286.836 357.062 287.394 354.463 288.477C351.863 289.56 349.503 291.147 347.52 293.147L277.334 363.333V128.667C277.334 123.009 275.086 117.582 271.085 113.582C267.084 109.581 261.658 107.333 256 107.333C250.342 107.333 244.916 109.581 240.915 113.582C236.915 117.582 234.667 123.009 234.667 128.667V363.333L164.48 293.147C160.491 289.13 155.07 286.861 149.409 286.841C143.748 286.821 138.311 289.051 134.294 293.04C130.276 297.029 128.008 302.45 127.988 308.111C127.968 313.772 130.198 319.21 134.187 323.227Z" fill="#F50641"/>
</svg>
