<svg width="512" height="512" viewBox="0 0 512 512" fill="none" xmlns="http://www.w3.org/2000/svg">
<path d="M377.813 210.773L286.08 119.253C278.086 111.307 267.272 106.846 256 106.846C244.728 106.846 233.914 111.307 225.92 119.253L134.187 210.773C130.213 214.77 127.983 220.177 127.983 225.813C127.983 231.449 130.213 236.856 134.187 240.853C136.17 242.853 138.529 244.44 141.129 245.523C143.729 246.606 146.517 247.164 149.333 247.164C152.15 247.164 154.938 246.606 157.538 245.523C160.137 244.44 162.497 242.853 164.48 240.853L234.667 170.667V405.333C234.667 410.991 236.914 416.418 240.915 420.418C244.916 424.419 250.342 426.667 256 426.667C261.658 426.667 267.084 424.419 271.085 420.418C275.086 416.418 277.333 410.991 277.333 405.333V170.667L347.52 240.853C351.509 244.87 356.93 247.139 362.591 247.159C368.252 247.179 373.689 244.949 377.707 240.96C381.724 236.971 383.992 231.55 384.012 225.889C384.032 220.228 381.802 214.79 377.813 210.773Z" fill="#F50641"/>
</svg>
