<svg width="512" height="512" viewBox="0 0 512 512" fill="none" xmlns="http://www.w3.org/2000/svg">
<path d="M489.738 233.739H22.2605C9.96625 233.739 0 243.705 0 256C0 268.294 9.96625 278.26 22.2605 278.26H489.738C502.033 278.26 511.999 268.294 511.999 256C512 243.705 502.033 233.739 489.738 233.739Z" fill="#F50641"/>
<path d="M22.2605 122.434H489.738C502.033 122.434 511.999 112.468 511.999 100.174C511.999 87.8796 502.033 77.9133 489.738 77.9133H22.2605C9.96625 77.9133 0 87.8796 0 100.174C0 112.468 9.96625 122.434 22.2605 122.434Z" fill="#F50641"/>
<path d="M489.738 389.565H22.2605C9.96625 389.565 0 399.532 0 411.826C0 424.12 9.96625 434.087 22.2605 434.087H489.738C502.033 434.087 511.999 424.12 511.999 411.826C512 399.532 502.033 389.565 489.738 389.565Z" fill="#F50641"/>
</svg>
