<svg width="512" height="512" viewBox="0 0 512 512" fill="none" xmlns="http://www.w3.org/2000/svg">
<g clip-path="url(#clip0_22_1988)">
<path d="M441.6 100.779L475.627 134.784C478.61 137.749 482.403 139.767 486.529 140.583C490.656 141.398 494.931 140.976 498.819 139.369C502.706 137.762 506.031 135.041 508.376 131.549C510.722 128.057 511.982 123.95 512 119.744V21.6106C512 15.9527 509.752 10.5265 505.752 6.52568C501.751 2.5249 496.325 0.277288 490.667 0.277288H392.384C388.174 0.28657 384.061 1.54125 380.563 3.88335C377.064 6.22545 374.337 9.55025 372.725 13.4391C371.112 17.328 370.686 21.607 371.501 25.7374C372.315 29.8678 374.333 33.6649 377.301 36.6506L411.435 70.6773L256 225.856L100.459 70.4L134.699 36.2666C137.689 33.2842 139.726 29.4816 140.553 25.3403C141.38 21.199 140.959 16.9054 139.344 13.0034C137.729 9.10141 134.992 5.76658 131.48 3.42134C127.968 1.0761 123.839 -0.17404 119.616 -0.170712L21.3333 -0.213379C15.6754 -0.213379 10.2492 2.03423 6.24839 6.03501C2.24761 10.0358 2.05025e-06 15.462 2.05025e-06 21.12V119.253C-0.0203294 123.486 1.21905 127.629 3.56044 131.156C5.90184 134.682 9.23939 137.433 13.1484 139.057C17.0575 140.681 21.3613 141.105 25.5122 140.276C29.6632 139.447 33.4736 137.401 36.4587 134.4L70.4 100.565L225.856 256L70.5067 411.221L36.3733 377.195C33.3889 374.228 29.5938 372.21 25.4653 371.395C21.3369 370.58 17.0596 371.004 13.1716 372.614C9.28363 374.224 5.95862 376.948 3.6149 380.443C1.27119 383.938 0.0134773 388.048 2.05025e-06 392.256V490.389C2.05025e-06 496.047 2.24761 501.473 6.24839 505.474C10.2492 509.475 15.6754 511.723 21.3333 511.723H119.616C123.804 511.693 127.891 510.431 131.367 508.094C134.843 505.757 137.554 502.449 139.162 498.582C140.77 494.715 141.205 490.46 140.411 486.347C139.617 482.235 137.631 478.447 134.699 475.456L100.672 441.365L256 286.144L411.349 441.344L377.216 475.477C374.284 478.468 372.297 482.256 371.504 486.368C370.71 490.481 371.144 494.736 372.753 498.603C374.361 502.47 377.072 505.779 380.548 508.115C384.024 510.452 388.11 511.714 392.299 511.744H490.539C496.197 511.744 501.623 509.496 505.624 505.496C509.624 501.495 511.872 496.069 511.872 490.411V392.277C511.871 388.059 510.619 383.935 508.275 380.428C505.931 376.92 502.6 374.186 498.702 372.572C494.804 370.958 490.516 370.535 486.378 371.358C482.24 372.181 478.44 374.212 475.456 377.195L441.6 411.2L286.165 256L441.6 100.779Z" fill="white"/>
</g>
<defs>
<clipPath id="clip0_22_1988">
<rect width="512" height="512" fill="white"/>
</clipPath>
</defs>
</svg>
