<svg width="512" height="512" viewBox="0 0 512 512" fill="none" xmlns="http://www.w3.org/2000/svg">
<g clip-path="url(#clip0_31_28)">
<path d="M155.584 44.6081L115.2 85.0134L36.4161 6.25073C32.3925 2.36469 27.0037 0.214407 21.4102 0.263013C15.8166 0.31162 10.466 2.55522 6.5106 6.5106C2.55522 10.466 0.31162 15.8166 0.263013 21.4102C0.214407 27.0037 2.36469 32.3925 6.25073 36.4161L85.0134 115.2L44.6081 155.584C41.6229 158.57 39.5909 162.375 38.7695 166.517C37.9481 170.658 38.3741 174.95 39.9937 178.85C41.6133 182.749 44.3536 186.08 47.8675 188.421C51.3815 190.762 55.5111 192.008 59.7334 192H161.365C169.49 192 177.282 188.773 183.027 183.027C188.773 177.282 192 169.49 192 161.365V59.7334C192.008 55.5111 190.762 51.3815 188.421 47.8675C186.08 44.3536 182.749 41.6133 178.85 39.9937C174.95 38.3741 170.658 37.9481 166.517 38.7695C162.375 39.5909 158.57 41.6229 155.584 44.6081Z" fill="#F50641"/>
<path d="M426.987 396.8L467.392 356.395C470.37 353.407 472.395 349.605 473.213 345.467C474.03 341.329 473.602 337.041 471.983 333.146C470.365 329.251 467.628 325.924 464.118 323.584C460.609 321.244 456.485 319.997 452.267 320H350.635C342.51 320 334.718 323.228 328.973 328.973C323.228 334.718 320 342.51 320 350.635V452.267C319.997 456.487 321.245 460.614 323.588 464.124C325.93 467.635 329.262 470.372 333.16 471.989C337.059 473.606 341.349 474.03 345.489 473.208C349.628 472.386 353.431 470.355 356.416 467.371L396.8 426.987L475.563 505.749C479.586 509.635 484.975 511.786 490.569 511.737C496.162 511.688 501.513 509.445 505.468 505.489C509.424 501.534 511.667 496.183 511.716 490.59C511.764 484.996 509.614 479.608 505.728 475.584L426.987 396.8Z" fill="#F50641"/>
<path d="M350.635 192H452.267C456.487 192.003 460.614 190.755 464.125 188.412C467.635 186.07 470.372 182.738 471.989 178.84C473.606 174.941 474.03 170.651 473.208 166.511C472.386 162.372 470.355 158.569 467.371 155.584L426.987 115.2L505.749 36.4373C509.752 32.4372 512.002 27.0106 512.004 21.3515C512.006 15.6924 509.76 10.2643 505.76 6.26134C501.76 2.25834 496.333 0.00834942 490.674 0.00634899C485.015 0.00434856 479.587 2.2505 475.584 6.25067L396.8 85.0133L356.416 44.608C353.43 41.6228 349.625 39.5909 345.484 38.7695C341.342 37.948 337.05 38.3741 333.15 39.9937C329.251 41.6133 325.92 44.3535 323.579 47.8675C321.238 51.3814 319.992 55.511 320 59.7333V161.365C320 169.49 323.228 177.282 328.973 183.027C334.718 188.772 342.51 192 350.635 192Z" fill="#F50641"/>
<path d="M161.365 320H59.7333C55.5128 319.997 51.3861 321.245 47.8755 323.588C44.3648 325.93 41.6278 329.262 40.0109 333.16C38.394 337.059 37.9697 341.349 38.7918 345.489C39.6139 349.628 41.6454 353.431 44.6293 356.416L85.0133 396.8L6.25061 475.584C4.21306 477.552 2.58784 479.906 1.46978 482.509C0.35172 485.111 -0.236787 487.911 -0.261402 490.743C-0.286016 493.576 0.253754 496.385 1.32641 499.007C2.39907 501.629 3.98314 504.011 5.98618 506.014C7.98923 508.017 10.3711 509.601 12.9929 510.674C15.6147 511.746 18.4239 512.286 21.2565 512.261C24.0891 512.237 26.8885 511.648 29.4912 510.53C32.094 509.412 34.448 507.787 36.4159 505.749L115.2 426.987L155.605 467.392C158.592 470.37 162.395 472.395 166.533 473.213C170.671 474.03 174.959 473.602 178.854 471.983C182.749 470.365 186.076 467.628 188.416 464.118C190.756 460.609 192.003 456.485 192 452.267V350.635C192 342.51 188.772 334.718 183.027 328.973C177.282 323.228 169.49 320 161.365 320Z" fill="#F50641"/>
</g>
<defs>
<clipPath id="clip0_31_28">
<rect width="512" height="512" fill="white"/>
</clipPath>
</defs>
</svg>
