<svg width="512" height="512" viewBox="0 0 512 512" fill="none" xmlns="http://www.w3.org/2000/svg">
<g clip-path="url(#clip0_133_68)">
<path d="M502.646 233.217C502.625 233.217 502.625 233.206 502.625 233.206L278.646 9.08138C266.563 -3.0306 245.417 -3.02018 233.375 9.07096L9.35417 233.217C3.33333 239.273 0 247.309 0 255.846C0 264.393 3.33333 272.438 9.375 278.484L233.354 502.609C239.396 508.665 247.438 512.001 256 512.001C264.563 512.001 272.604 508.665 278.625 502.619L502.625 278.484C508.667 272.438 512 264.393 512 255.846C512 247.309 508.667 239.273 502.646 233.217Z" fill="black"/>
<path opacity="0.1" d="M505.192 270.716L278.859 497.186C272.775 503.294 264.649 506.665 255.998 506.665C247.347 506.665 239.221 503.294 233.117 497.176L6.80404 270.716C4.15951 268.069 2.13867 264.991 0.572266 261.708C1.73633 268.022 4.73893 273.845 9.37305 278.482L233.352 502.607C239.394 508.663 247.436 511.999 255.998 511.999C264.561 511.999 272.602 508.663 278.623 502.617L502.623 278.482C507.257 273.845 510.261 268.022 511.425 261.708C509.859 264.991 507.837 268.069 505.192 270.716Z" fill="#010101"/>
<path d="M362.667 213.335C354.669 213.335 347.264 215.682 340.859 219.527L292.474 171.142C296.318 164.738 298.667 157.333 298.667 149.335C298.667 125.803 279.521 106.668 256 106.668C248.109 106.668 240.805 108.967 234.457 112.717L182.111 60.3646L167.031 75.4518L219.376 127.803C215.632 134.147 213.333 141.448 213.333 149.335C213.333 169.16 226.987 185.716 245.333 190.486V321.517C226.987 326.286 213.333 342.842 213.333 362.668C213.333 386.199 232.479 405.335 256 405.335C279.521 405.335 298.667 386.199 298.667 362.668C298.667 342.842 285.013 326.286 266.667 321.517V190.486C270.437 189.505 273.974 188.014 277.267 186.102L325.9 234.734C322.247 241.021 320 248.221 320 256.001C320 279.533 339.146 298.668 362.667 298.668C386.187 298.668 405.333 279.533 405.333 256.001C405.333 232.47 386.187 213.335 362.667 213.335Z" fill="#444444"/>
<path opacity="0.2" d="M9.35417 238.55L233.375 14.4043C245.417 2.31315 266.563 2.30274 278.646 14.4147L502.625 238.54C502.625 238.54 502.625 238.55 502.646 238.55C508.029 243.964 511.115 250.993 511.74 258.514C511.814 257.62 512 256.752 512 255.846C512 247.309 508.667 239.273 502.646 233.217C502.625 233.217 502.625 233.206 502.625 233.206L278.646 9.08138C266.563 -3.0306 245.417 -3.02018 233.375 9.07096L9.35417 233.217C3.33333 239.273 0 247.309 0 255.846C0 256.751 0.186197 257.619 0.260416 258.511C0.886718 250.99 3.97266 243.963 9.35417 238.55Z" fill="#444444"/>
</g>
<defs>
<clipPath id="clip0_133_68">
<rect width="512" height="512" fill="white"/>
</clipPath>
</defs>
</svg>
