<svg width="512" height="512" viewBox="0 0 512 512" fill="none" xmlns="http://www.w3.org/2000/svg">
<g clip-path="url(#clip0_113_66)">
<path d="M283.652 512C290.279 512 295.651 506.627 295.651 500V290.47C295.651 283.842 301.024 278.47 307.651 278.47H363.456C369.49 278.47 374.585 273.99 375.357 268.007L384.014 200.969C384.941 193.791 379.35 187.432 372.113 187.432H307.652C301.024 187.432 295.651 182.059 295.651 175.432V129.318C295.651 102.968 302.938 85.0116 340.766 85.0116L376.938 84.9967C383.564 84.994 388.934 79.6222 388.934 72.9967V14.1058C388.934 8.07615 384.466 3.01221 378.459 2.49209C365.26 1.34933 343.269 0 318.73 0C249.237 0 201.66 42.4183 201.66 120.301V175.432C201.66 182.059 196.287 187.432 189.66 187.432H135.067C128.44 187.432 123.067 192.805 123.067 199.432V266.47C123.067 273.097 128.44 278.47 135.067 278.47H189.66C196.287 278.47 201.66 283.842 201.66 290.47V500C201.66 506.627 207.032 512 213.66 512H283.652Z" fill="#010002"/>
</g>
<defs>
<clipPath id="clip0_113_66">
<rect width="512" height="512" fill="white"/>
</clipPath>
</defs>
</svg>
