<svg width="512" height="512" viewBox="0 0 512 512" fill="none" xmlns="http://www.w3.org/2000/svg">
<path d="M312.227 388.813L403.747 297.08C411.693 289.086 416.154 278.272 416.154 267C416.154 255.728 411.693 244.914 403.747 236.92L312.227 145.186C308.23 141.213 302.823 138.983 297.187 138.983C291.551 138.983 286.144 141.213 282.147 145.186C280.147 147.17 278.56 149.529 277.477 152.129C276.394 154.729 275.836 157.517 275.836 160.333C275.836 163.149 276.394 165.938 277.477 168.537C278.56 171.137 280.147 173.497 282.147 175.48L352.333 245.666H117.667C112.009 245.666 106.582 247.914 102.582 251.915C98.5809 255.916 96.3333 261.342 96.3333 267C96.3333 272.658 98.5809 278.084 102.582 282.085C106.582 286.086 112.009 288.333 117.667 288.333H352.333L282.147 358.52C278.13 362.509 275.861 367.93 275.841 373.591C275.821 379.252 278.051 384.689 282.04 388.706C286.029 392.724 291.45 394.992 297.111 395.012C302.772 395.032 308.21 392.802 312.227 388.813Z" fill="white"/>
</svg>
