<svg width="512" height="512" viewBox="0 0 512 512" fill="none" xmlns="http://www.w3.org/2000/svg">
<path d="M209.45 130.277L339.029 130.428C350.301 130.462 361.102 134.954 369.072 142.925C377.043 150.895 381.535 161.696 381.569 172.968L381.72 302.547C381.703 308.183 379.456 313.584 375.471 317.569C371.486 321.554 366.086 323.8 360.45 323.817C357.634 323.829 354.843 323.282 352.239 322.21C349.635 321.138 347.269 319.56 345.277 317.569C343.286 315.577 341.709 313.211 340.636 310.607C339.564 308.003 339.018 305.213 339.029 302.396V203.138L173.095 369.072C169.094 373.073 163.668 375.32 158.01 375.32C152.352 375.32 146.926 373.073 142.925 369.072C138.924 365.071 136.677 359.645 136.676 353.987C136.676 348.329 138.924 342.903 142.925 338.902L308.859 172.968L209.6 172.968C203.939 172.988 198.502 170.758 194.485 166.769C190.468 162.78 188.2 157.359 188.18 151.698C188.16 146.037 190.389 140.6 194.378 136.582C198.367 132.565 203.788 130.297 209.45 130.277Z" fill="black"/>
</svg>
