<svg width="512" height="512" viewBox="0 0 512 512" fill="none" xmlns="http://www.w3.org/2000/svg">
<path d="M512 257.557C512 380.475 425.24 483.173 309.696 507.905C302.489 509.448 295.893 503.802 295.893 496.432V344.053C295.893 337.426 301.266 332.053 307.893 332.053H345.093C351.018 332.053 356.056 327.73 356.954 321.874L364.599 272.06C365.714 264.793 360.091 258.24 352.738 258.24H307.893C301.266 258.24 295.893 252.867 295.893 246.24V210.347C295.893 190.144 305.792 170.475 337.493 170.475H357.685C364.313 170.475 369.685 165.102 369.685 158.475V117.751C369.685 111.903 365.48 106.923 359.684 106.143C348.741 104.672 330.372 102.635 312.533 102.635C254.208 102.635 216.107 137.984 216.107 201.963V246.219C216.107 252.846 210.734 258.219 204.107 258.219H163.275C156.647 258.219 151.275 263.591 151.275 270.219V320.032C151.275 326.659 156.647 332.032 163.275 332.032H204.107C210.734 332.032 216.107 337.405 216.107 344.032V496.408C216.107 503.779 209.509 509.425 202.302 507.88C86.7774 483.129 0 380.453 0 257.557C0 116.181 114.624 1.55731 256 1.55731C397.376 1.55731 512 116.16 512 257.557Z" fill="black"/>
</svg>
